<?xml version="1.0" encoding="utf-8"?>
<!-- Generator: Adobe Illustrator 19.1.0, SVG Export Plug-In . SVG Version: 6.00 Build 0)  -->
<svg version="1.1" id="Layer_1" xmlns="http://www.w3.org/2000/svg" xmlns:xlink="http://www.w3.org/1999/xlink" x="0px" y="0px"
	 viewBox="0 0 48 48" style="enable-background:new 0 0 48 48;" xml:space="preserve">
<ellipse style="opacity:0.65;fill:none;stroke:#E9F0F0;stroke-miterlimit:10;" cx="24" cy="24" rx="23.5" ry="23.5"/>
<g style="opacity:0.5;">
	<path style="fill:#FFFFFF;" d="M21.1,25.3v3.7h5v1.6h-5v4.5h-2v-4.5h-2v-1.6h2v-3.7h-2v-1.8h2V12.9h6.1c1,0,2,0.1,2.8,0.4
		c0.9,0.2,1.6,0.6,2.2,1.1c0.6,0.5,1.1,1.2,1.5,1.9c0.4,0.8,0.5,1.7,0.5,2.7S32,21,31.7,21.8c-0.3,0.8-0.8,1.4-1.4,2
		c-0.6,0.5-1.3,0.9-2.2,1.2c-0.8,0.3-1.8,0.4-2.8,0.4H21.1z M25.1,23.5c0.7,0,1.4-0.1,2-0.3c0.6-0.2,1.2-0.4,1.6-0.8
		c0.5-0.4,0.8-0.8,1.1-1.4s0.4-1.2,0.4-2s-0.1-1.5-0.4-2s-0.6-1-1.1-1.3c-0.5-0.3-1-0.6-1.6-0.8c-0.6-0.2-1.3-0.2-2-0.2h-4v8.8H25.1
		z"/>
</g>
</svg>
