<?xml version="1.0" encoding="utf-8"?>
<!-- Generator: Adobe Illustrator 19.1.0, SVG Export Plug-In . SVG Version: 6.00 Build 0)  -->
<svg version="1.1" id="Layer_1" xmlns="http://www.w3.org/2000/svg" xmlns:xlink="http://www.w3.org/1999/xlink" x="0px" y="0px"
	 viewBox="0 0 48 48" style="enable-background:new 0 0 48 48;" xml:space="preserve">
<ellipse style="opacity:0.65;fill:none;stroke:none;stroke-miterlimit:0;" cx="24" cy="24" rx="23.5" ry="23.5"/>
<g style="opacity:0.7;">
	<g>
		<path style="fill:#0B1010;" d="M25.1,35.6c-2.7,0-4.8-0.9-6.5-2.8c-1.4-1.7-2.3-3.9-2.6-6.8h-2.1l0.6-1.4h1.4c0-0.1,0-0.2,0-0.3
			V24c0-0.2,0-0.4,0-0.6s0-0.4,0-0.7h-2l0.6-1.4h1.6c0.5-2.6,1.5-4.7,2.9-6.3c1.6-1.7,3.7-2.6,6.2-2.6c2.6,0,4.6,0.8,6,2.5l-0.9,1.9
			c-1.4-1.7-3.1-2.5-5.1-2.5c-2,0-3.6,0.7-4.8,2.1c-1.1,1.2-1.8,2.9-2.2,4.9h10.7l-0.6,1.4H18.1c-0.1,0.5-0.1,1-0.1,1.4v0.3
			c0,0.1,0,0.2,0,0.3h9.7L27.1,26h-9c0.3,2.2,0.9,4,2,5.4c1.3,1.6,3,2.4,5.1,2.4c1.1,0,2.1-0.2,3.1-0.7c0.7-0.4,1.6-1.1,2.5-2v2.5
			C29.1,34.9,27.2,35.6,25.1,35.6z"/>
	</g>
</g>
</svg>
