<?xml version="1.0" encoding="utf-8"?>
<!-- Generator: Adobe Illustrator 19.1.0, SVG Export Plug-In . SVG Version: 6.00 Build 0)  -->
<svg version="1.1" id="Layer_1" xmlns="http://www.w3.org/2000/svg" xmlns:xlink="http://www.w3.org/1999/xlink" x="0px" y="0px"
	 viewBox="0 0 48 48" style="enable-background:new 0 0 48 48;" xml:space="preserve">
<ellipse style="opacity:0.65;fill:none;stroke:#E9F0F0;stroke-miterlimit:10;" cx="24" cy="24" rx="23.5" ry="23.5"/>
<g style="opacity:0.5;">
	<path style="fill:#FFFFFF;" d="M19.7,31.8c0.9,1,2.2,1.6,3.9,1.8v-9.5c-0.9-0.2-1.8-0.4-2.6-0.7c-0.8-0.3-1.5-0.6-2.1-1.1
		s-1.1-1.1-1.5-1.8c-0.4-0.7-0.5-1.7-0.5-2.8c0-1,0.2-1.8,0.5-2.6c0.4-0.8,0.8-1.4,1.4-2c0.6-0.5,1.3-1,2.1-1.2s1.7-0.4,2.6-0.4V9
		h1.2v2.5c0.9,0,1.8,0.2,2.6,0.5c0.8,0.3,1.5,0.8,2.2,1.4c0.6,0.6,1.1,1.3,1.5,2.2c0.4,0.9,0.5,1.8,0.5,2.8h-2
		c0-1.6-0.5-2.9-1.3-3.8c-0.9-0.9-2-1.4-3.4-1.4v9.2c0.9,0.2,1.8,0.4,2.7,0.7c0.9,0.3,1.7,0.7,2.4,1.2c0.7,0.5,1.3,1.1,1.7,1.8
		c0.4,0.7,0.6,1.7,0.6,2.8c0,1-0.2,2-0.6,2.8c-0.4,0.8-1,1.5-1.7,2c-0.7,0.5-1.5,0.9-2.4,1.2c-0.9,0.3-1.8,0.4-2.7,0.4V38h-1.2v-2.8
		c-2.5-0.2-4.3-1-5.5-2.2c-1.1-1.2-1.8-3.1-1.8-5.5h2C18.3,29.4,18.8,30.8,19.7,31.8z M21.8,13.4c-0.6,0.2-1.1,0.5-1.5,0.8
		c-0.4,0.4-0.8,0.9-1,1.5c-0.2,0.6-0.4,1.3-0.4,2.2c0,0.7,0.1,1.4,0.4,1.8c0.3,0.5,0.6,0.9,1.1,1.2c0.4,0.3,0.9,0.5,1.5,0.7
		c0.6,0.2,1.1,0.3,1.7,0.5v-8.9C22.9,13.2,22.3,13.3,21.8,13.4z M26.8,33.3c0.6-0.2,1.2-0.4,1.7-0.8c0.5-0.4,0.9-0.9,1.2-1.5
		s0.5-1.3,0.5-2.1c0-0.8-0.2-1.4-0.5-1.9c-0.3-0.5-0.8-0.9-1.3-1.3c-0.5-0.3-1.1-0.6-1.7-0.8c-0.6-0.2-1.3-0.4-1.9-0.5v9.2
		C25.5,33.6,26.2,33.5,26.8,33.3z"/>
</g>
</svg>
